<?xml version="1.0" encoding="UTF-8"?>
<svg viewBox="0 0 320 260" xmlns="http://www.w3.org/2000/svg">
                        <!-- Text Input -->
                        <rect x="20" y="30" width="80" height="35" rx="4" fill="#e0f2fe" stroke="#0284c7" stroke-width="1.5"/>
                        <text x="60" y="52" text-anchor="middle" font-size="10" fill="#0369a1">Texto</text>

                        <!-- Voice Reference -->
                        <rect x="220" y="30" width="80" height="35" rx="4" fill="#fce7f3" stroke="#db2777" stroke-width="1.5"/>
                        <text x="260" y="47" text-anchor="middle" font-size="9" fill="#be185d">Referência</text>
                        <text x="260" y="58" text-anchor="middle" font-size="8" fill="#db2777">de Voz</text>

                        <!-- Arrows to acoustic model -->
                        <path d="M60 65 L60 90" stroke="#64748b" stroke-width="1.5" marker-end="url(#arrow3)"/>
                        <path d="M260 65 L260 80 L180 80 L180 90" stroke="#64748b" stroke-width="1.5" marker-end="url(#arrow3)"/>

                        <!-- Acoustic Model -->
                        <rect x="40" y="95" width="240" height="50" rx="4" fill="#dbeafe" stroke="#2563eb" stroke-width="1.5"/>
                        <text x="160" y="115" text-anchor="middle" font-size="11" font-weight="600" fill="#1e40af">Modelo Acústico</text>
                        <text x="160" y="130" text-anchor="middle" font-size="8" fill="#3b82f6">AR Decoder + Diffusion Model</text>

                        <!-- Arrow -->
                        <path d="M160 145 L160 165" stroke="#64748b" stroke-width="1.5" marker-end="url(#arrow3)"/>

                        <!-- Mel Spectrogram -->
                        <rect x="90" y="170" width="140" height="30" rx="4" fill="#fef3c7" stroke="#d97706" stroke-width="1.5"/>
                        <text x="160" y="190" text-anchor="middle" font-size="10" fill="#92400e">Mel Spectrogram</text>

                        <!-- Arrow -->
                        <path d="M160 200 L160 215" stroke="#64748b" stroke-width="1.5" marker-end="url(#arrow3)"/>

                        <!-- Vocoder -->
                        <rect x="70" y="220" width="180" height="35" rx="4" fill="#ede9fe" stroke="#7c3aed" stroke-width="1.5"/>
                        <text x="160" y="242" text-anchor="middle" font-size="10" font-weight="600" fill="#5b21b6">Vocoder (HiFi-GAN)</text>

                        <!-- Arrow to output -->
                        <path d="M250 237 L280 237" stroke="#64748b" stroke-width="1.5" marker-end="url(#arrow3)"/>

                        <!-- Audio Output -->
                        <rect x="285" y="220" width="30" height="35" rx="4" fill="#dcfce7" stroke="#16a34a" stroke-width="1.5"/>
                        <!-- Speaker icon -->
                        <path d="M294 232 L294 243 L298 243 L303 248 L303 227 L298 232 Z" fill="#166534"/>
                        <path d="M306 233 Q309 237.5 306 242" stroke="#166534" stroke-width="1.5" fill="none"/>
                        <path d="M308 230 Q313 237.5 308 245" stroke="#166534" stroke-width="1.5" fill="none"/>

                        <defs>
                            <marker id="arrow3" markerWidth="8" markerHeight="8" refX="6" refY="3" orient="auto">
                                <path d="M0,0 L0,6 L6,3 z" fill="#64748b"/>
                            </marker>
                        </defs>
                    </svg>